<?xml version="1.0" standalone="no"?>
<!DOCTYPE svg PUBLIC "-//W3C//DTD SVG 1.1//EN" "http://www.w3.org/Graphics/SVG/1.1/DTD/svg11.dtd" >
<svg xmlns="http://www.w3.org/2000/svg">
<metadata></metadata>
<defs>
<font id="dangleterre05regular" horiz-adv-x="997" >
<font-face units-per-em="2048" ascent="1536" descent="-512" />
<missing-glyph horiz-adv-x="653" />
<glyph horiz-adv-x="2048" />
<glyph horiz-adv-x="2048" />
<glyph unicode="&#xd;" horiz-adv-x="2048" />
<glyph unicode=" "  horiz-adv-x="653" />
<glyph unicode="&#x09;" horiz-adv-x="653" />
<glyph unicode="&#xa0;" horiz-adv-x="653" />
<glyph unicode="!" horiz-adv-x="397" d="M102 1434h193l-72 -1143h-49zM106 78q0 38 27.5 65t65.5 27t65 -27t27 -65t-27 -65t-65 -27t-65.5 27t-27.5 65z" />
<glyph unicode="&#x22;" horiz-adv-x="446" d="M72 985v449h145q-82 -287 -121 -449h-24zM258 985v449h145q-81 -287 -120 -449h-25z" />
<glyph unicode="#" horiz-adv-x="643" d="M-190 430v25h1679v-25h-1679zM-92 997v25h1679v-25h-1679zM109 -102l374 1638h33l-375 -1638h-32zM856 -102l375 1638h33l-375 -1638h-33z" />
<glyph unicode="$" horiz-adv-x="952" d="M113 1114q0 96 27.5 163.5t80 106t119 55.5t154.5 17q56 0 133.5 -13t127.5 -27l50 -13v-440h-25l-125 440q-49 31 -143 31q-127 0 -185.5 -49t-58.5 -164q0 -63 31.5 -128.5t82 -123.5t111.5 -117.5t122 -120.5t111.5 -122t82 -133t31.5 -144q0 -73 -19.5 -134.5 t-61.5 -113t-117 -80.5t-177 -29q-56 0 -140.5 12.5t-140.5 24.5l-57 13v460h25l124 -460q70 -25 164 -25q112 0 178 55t66 189q0 62 -31.5 127t-82 122.5t-111.5 117t-121.5 120t-111 120t-82 128t-31.5 135.5zM449 -90v1624h28v-1624h-28z" />
<glyph unicode="%" horiz-adv-x="1052" d="M20 1094q0 91 13.5 156.5t33.5 101.5t52.5 57t61 27t67.5 6q27 0 48 -2.5t45.5 -11.5t43 -24t36 -41.5t29 -62.5t18.5 -88.5t7 -117.5q0 -101 -15 -170t-46 -108.5t-71 -56t-95 -16.5q-56 0 -96 16.5t-70.5 55.5t-46 108.5t-15.5 170.5zM74 -59l862 1554h33l-863 -1554 h-32zM141 1098q0 -106 9 -256q5 -78 98 -78t98 78q8 218 8 252q0 110 -6 221q-4 57 -29.5 81.5t-70.5 24.5t-70 -24.5t-28 -81.5q-9 -123 -9 -217zM582 322q0 76 8.5 134.5t25.5 95.5t37 61.5t47.5 36t52 16t56.5 4.5q27 0 48 -2.5t45.5 -11.5t43 -24t36 -41.5t29 -62.5 t18.5 -88.5t7 -117.5q0 -101 -15 -170t-46 -108.5t-71 -56t-95 -16.5q-75 0 -122.5 29.5t-76 108.5t-28.5 213zM702 326q0 -106 9 -256q5 -78 98 -78t98 78q8 145 8 252q0 110 -6 221q-4 57 -29.5 81.5t-70.5 24.5t-70 -24.5t-28 -81.5q-9 -123 -9 -217z" />
<glyph unicode="&#x26;" horiz-adv-x="1191" d="M154 397q0 193 79.5 293.5t219.5 100.5v4q-64 7 -109.5 30.5t-71 53.5t-40.5 76t-19 87.5t-4 98.5q0 174 83 243.5t259 69.5q56 0 123.5 -9t107.5 -17l39 -9v-477h-24l-125 477q-9 13 -103 13q-89 0 -133 -48t-53 -165q-2 -41 -2 -97q0 -64 4 -121q4 -95 48.5 -146.5 t113.5 -51.5h538v-25h-163v-628q0 -140 67 -140q34 0 66.5 28t46.5 83l28 -8q-11 -64 -64 -103t-112 -39q-139 0 -182 82q-71 -46 -117.5 -64t-119.5 -18q-173 0 -277 107.5t-104 318.5zM326 373q0 -115 4 -172q5 -102 55.5 -154.5t161.5 -52.5q75 0 131.5 33.5t87.5 76.5 v674h-240q-86 0 -138 -71.5t-60 -188.5q-2 -41 -2 -145z" />
<glyph unicode="'" horiz-adv-x="360" d="M154 985v449h145q-82 -287 -121 -449h-24z" />
<glyph unicode="(" horiz-adv-x="694" d="M127 719q0 203 9.5 361t26.5 274.5t46 199.5t62.5 135.5t82 82.5t98.5 41.5t117 11.5v-33q-30 0 -54.5 -3t-57 -15.5t-57.5 -33t-51 -59t-44 -91t-30.5 -131.5t-14.5 -177q-6 -212 -6 -563q0 -353 6 -565q3 -98 15.5 -177t30.5 -131.5t44 -91.5t51 -60t57 -33t56.5 -15.5 t54.5 -3.5v-35q-67 0 -117 11.5t-98 42.5t-82 84t-63 136.5t-46 200.5t-26.5 275.5t-9.5 361.5z" />
<glyph unicode=")" horiz-adv-x="694" d="M127 -358q30 0 54.5 3.5t56.5 15.5t57 33t51 60t44 91.5t30.5 131.5t15.5 177q6 211 6 565q0 351 -6 563q-2 98 -14.5 177t-30.5 131.5t-44 91t-51 59t-57.5 33t-57 15.5t-54.5 3v33q67 0 117 -11.5t98.5 -41.5t82 -82.5t62.5 -135.5t46 -199.5t26.5 -274.5t9.5 -361 t-9.5 -361.5t-26.5 -275.5t-46 -200.5t-63 -136.5t-82 -84t-98 -42.5t-117 -11.5v35z" />
<glyph unicode="*" horiz-adv-x="661" d="M33 1102l518 299l14 -25l-518 -299zM33 1376l14 25l518 -299l-14 -25zM285 940v598h28v-598h-28z" />
<glyph unicode="+" d="M133 614v25h674v-25h-674zM457 289v674h24v-674h-24z" />
<glyph unicode="," horiz-adv-x="325" d="M61 -256l41 469h166l-162 -469h-45z" />
<glyph unicode="-" d="M133 614v25h674v-25h-674z" />
<glyph unicode="." horiz-adv-x="294" d="M55 78q0 38 27 65t65 27t65.5 -27t27.5 -65t-27.5 -65t-65.5 -27t-65 27t-27 65z" />
<glyph unicode="/" horiz-adv-x="643" d="M109 -102l374 1638h33l-375 -1638h-32z" />
<glyph unicode="0" horiz-adv-x="1073" d="M164 717q0 185 18 318t48.5 214t79.5 128t102 63t125 16t125 -16t102 -63t79 -128t48 -214t18 -318q0 -168 -11.5 -288t-37.5 -209t-70 -142t-105.5 -78t-147.5 -25q-143 0 -223.5 72t-115 230.5t-34.5 439.5zM324 725q0 -255 16 -567q7 -158 197 -158q189 0 196 158 q19 409 19 559q0 284 -15 504q-7 115 -58 164t-142 49t-140.5 -49t-56.5 -164q-16 -216 -16 -496z" />
<glyph unicode="1" horiz-adv-x="821" d="M135 1047l258 387h164v-1409h195v-25h-557v25h190v1343l-225 -334z" />
<glyph unicode="2" horiz-adv-x="999" d="M61 0v100q91 82 166 157.5t130 137t97.5 124t70 108t47 99.5t29 87.5t14.5 83.5t5.5 76t0.5 76v174q0 111 -63.5 161t-160.5 50q-37 0 -68 -5t-43 -11l-12 -5l-124 -426h-25v426q166 47 291 47q387 0 387 -377q0 -203 -37 -306q-38 -107 -154 -226q-75 -76 -319 -287 l-150 -129h672v-135h-754z" />
<glyph unicode="3" horiz-adv-x="983" d="M154 12v441h24l125 -441q54 -12 148 -12q37 0 69 7t62.5 23.5t49.5 49t21 78.5q4 114 4 192q0 86 -4 168q-14 223 -202 223h-97v21h82q37 0 69.5 7t63 23.5t49.5 49t21 78.5q4 98 4 147q0 46 -4 152q-7 114 -59 163.5t-144 49.5q-42 0 -72.5 -3t-40.5 -7l-10 -3 l-125 -436h-24v436q166 35 291 35q172 0 266 -88.5t94 -265.5q0 -52 -8.5 -97.5t-29 -88.5t-52.5 -75.5t-81.5 -55t-113.5 -29.5v-4q140 0 219.5 -98t79.5 -290q0 -387 -354 -387q-56 0 -136 9.5t-133 18.5z" />
<glyph unicode="4" horiz-adv-x="1062" d="M102 403v25l416 1006h182v-19l-569 -987h420v371h143h29v-371h238v-25h-238v-378h195v-25h-558v25h191v378h-449z" />
<glyph unicode="5" horiz-adv-x="983" d="M154 12v441h24l125 -437q54 -20 148 -20q36 0 70 11.5t64.5 36t49 68.5t18.5 103q0 25 2 86.5t2 108.5q0 126 -4 208q-6 131 -64 207t-163 76q-60 0 -104.5 -18t-69 -47.5t-37 -59.5t-16.5 -63h-29v721h578l-54 -136h-489v-460q83 86 225 86q193 0 296 -123t103 -357 q0 -45 -4.5 -89t-16 -91.5t-29.5 -89t-46 -79.5t-64 -65t-85.5 -43t-108.5 -16q-61 0 -141 10.5t-130 20.5z" />
<glyph unicode="6" horiz-adv-x="1073" d="M164 719q0 179 19 311t50.5 213t81 129.5t102.5 66t122 17.5q56 0 128.5 -9t116.5 -17l45 -9v-395h-24l-125 395q-29 13 -123 13q-91 0 -142.5 -49t-60.5 -164q-12 -140 -12 -326v-72q78 66 195 66q88 0 154 -22t107 -60t66.5 -97.5t35 -126t9.5 -153.5 q0 -107 -18.5 -187.5t-61 -142t-115.5 -93.5t-177 -32q-108 0 -178 36.5t-114.5 125.5t-62.5 227.5t-18 354.5zM334 428q0 -138 6 -270q7 -158 197 -158q189 0 196 158q4 114 4 258q0 149 -4 231q-7 116 -56.5 166.5t-139.5 50.5t-139 -50.5t-58 -166.5q-6 -74 -6 -219z" />
<glyph unicode="7" horiz-adv-x="847" d="M82 0l702 1298h-700v136h754v-97l-594 -1337h-162z" />
<glyph unicode="8" horiz-adv-x="1052" d="M154 369q0 191 79 286t220 95v4q-64 7 -113.5 30t-81.5 56t-52.5 76.5t-29 89.5t-8.5 98q0 177 93 264.5t265 87.5t265.5 -87.5t93.5 -264.5q0 -52 -8.5 -98t-29 -89.5t-52.5 -76.5t-81.5 -56t-113.5 -30v-4q141 0 220 -95t79 -286q0 -79 -19 -146t-60.5 -124.5 t-116.5 -90.5t-177 -33t-177 33t-116 90.5t-60 124.5t-19 146zM326 354q0 -139 4 -196q7 -158 196 -158q190 0 197 158q4 114 4 196q0 88 -4 170q-7 116 -57 166.5t-140 50.5q-89 0 -137.5 -50.5t-58.5 -166.5q-4 -43 -4 -170zM340 1075q0 -49 4 -151q8 -162 182 -162 q175 0 183 162q2 57 2 161q0 95 -2 136q-7 117 -50.5 165t-132.5 48t-133.5 -48.5t-48.5 -164.5q-4 -102 -4 -146z" />
<glyph unicode="9" horiz-adv-x="1073" d="M164 1001q0 106 19 186.5t61 142.5t115.5 94t177.5 32q87 0 148 -24t105 -75t69.5 -139.5t37.5 -210.5t12 -294q0 -181 -18 -312.5t-49.5 -213t-82.5 -129.5t-108 -65.5t-135 -17.5q-55 0 -123 8.5t-109 17.5l-40 9v396h24l125 -396q29 -12 123 -12q91 0 142.5 49 t60.5 164q12 140 12 326v92q-73 -86 -199 -86q-88 0 -153.5 22t-106 60t-65.5 97.5t-34 125.5t-9 153zM336 1016q0 -189 4 -232q10 -116 59 -166.5t138 -50.5q90 0 139.5 50.5t56.5 166.5q4 82 4 232q0 140 -4 258q-7 158 -196 158q-190 0 -197 -158q-4 -59 -4 -258z" />
<glyph unicode=":" horiz-adv-x="296" d="M55 78q0 38 27 65t65 27t65.5 -27t27.5 -65t-27.5 -65t-65.5 -27t-65 27t-27 65zM55 602q0 38 27 65t65 27t65.5 -27t27.5 -65t-27.5 -65t-65.5 -27t-65 27t-27 65z" />
<glyph unicode=";" horiz-adv-x="313" d="M61 -256h45l162 469h-166zM80 707q0 38 27 65t65 27t65 -27t27 -65t-27 -65.5t-65 -27.5t-65 27.5t-27 65.5z" />
<glyph unicode="=" horiz-adv-x="946" d="M133 508v24h674v-24h-674zM133 754v24h674v-24h-674z" />
<glyph unicode="?" horiz-adv-x="909" d="M123 948v426q166 47 291 47q70 0 126 -9.5t106 -34.5t83.5 -64.5t52.5 -102t19 -145.5q0 -120 -61.5 -211t-184.5 -174l-139 -94q-29 -19 -37.5 -26t-14.5 -22t-6 -42v-174h-39v346q0 19 6.5 32.5t12 19t26.5 18t29 18.5l90 63q79 55 109.5 117.5t30.5 155.5q0 54 -4 93 t-18 81t-38 68.5t-66.5 43.5t-101.5 17q-42 0 -72.5 -5.5t-40.5 -10.5l-10 -5l-125 -426h-24zM248 78q0 38 27 65t65 27t65 -27t27 -65t-27 -65t-65 -27t-65 27t-27 65z" />
<glyph unicode="A" horiz-adv-x="1042" d="M10 0v25h123l287 1273l-37 136h174l358 -1409h117v-25h-426v25h131l-127 526h-327l-117 -526h192v-25h-348zM287 575h315l-162 662h-4z" />
<glyph unicode="B" horiz-adv-x="1089" d="M82 0v25h176v1384h-176v25h532q159 0 248.5 -84.5t89.5 -259.5q0 -304 -284 -336v-4q299 0 298 -367q0 -350 -284 -383h-600zM432 25h156q193 0 203 157q4 102 3.5 188t-3.5 158q-10 115 -61 164t-142 49h-156v-716zM432 762h141q37 0 69 7t62.5 23.5t49.5 49t22 78.5 q3 81 3 150t-3 126q-10 115 -61 164t-142 49h-141v-647z" />
<glyph unicode="C" horiz-adv-x="966" d="M113 754q0 175 21.5 301.5t58 204t95.5 123t123 61.5t152 16q56 0 128.5 -9t117.5 -17l45 -9v-440h-25l-124 440q-29 11 -123 11q-50 0 -93 -15.5t-84 -52t-67 -106.5t-31 -168q-8 -133 -8 -361q0 -226 8 -354q6 -114 29 -192.5t60.5 -117.5t76 -54t86.5 -15q42 0 78.5 3 t52.5 6l15 3l124 439h25v-443q-197 -37 -322 -37q-80 0 -143 24.5t-115.5 81t-87.5 146t-54 223t-19 308.5z" />
<glyph unicode="D" horiz-adv-x="1232" d="M123 0v25h166v1384h-166v25h92q45 0 205.5 3t179.5 3q96 0 165 -12t127.5 -43.5t95.5 -83t63.5 -133t37.5 -191.5t11 -260t-11 -260t-37.5 -191.5t-63.5 -133t-95.5 -83t-127.5 -43.5t-165 -12q-19 0 -179.5 3t-205.5 3h-92zM463 25q35 -5 127 -5q108 0 170.5 27.5 t97.5 101t43 207.5q8 139 8 361q0 221 -8 360q-8 134 -43 207.5t-97.5 101t-170.5 27.5l-127 -4v-1384z" />
<glyph unicode="E" horiz-adv-x="1101" d="M82 0v25h190v1384h-190v25h815v-441h-25l-120 416h-306v-649h185l63 241h21v-509h-21l-63 243h-185v-710h351l116 415h25v-440h-856z" />
<glyph unicode="F" horiz-adv-x="978" d="M82 0v25h190v1384h-190v25h815v-441h-25l-120 416h-306v-649h185l63 241h21v-509h-21l-63 243h-185v-710h191v-25h-555z" />
<glyph unicode="G" horiz-adv-x="1081" d="M113 754q0 175 21.5 301.5t58 204t95.5 123t123 61.5t152 16q56 0 128.5 -9t117.5 -17l45 -9v-440h-25l-124 440q-29 13 -123 13q-49 0 -92.5 -16t-84.5 -52.5t-67 -107t-31 -168.5q-8 -133 -8 -361q0 -226 8 -354q5 -92 22 -161.5t40.5 -110.5t56 -66.5t64 -34 t69.5 -8.5q34 0 63 7.5t46.5 18.5t30 22t17.5 18l5 8v592h-139v20h417v-20h-100v-693h-33q-4 9 -11.5 21.5t-30 33.5t-44.5 21q-19 0 -41.5 -12t-44 -26t-65 -26t-97.5 -12q-80 0 -143 24.5t-115.5 81t-87.5 146t-54 223t-19 308.5z" />
<glyph unicode="H" horiz-adv-x="1378" d="M82 0v25h190v1384h-190v25h512v-25h-150v-649h486v649h-150v25h512v-25h-190v-1384h194v-25h-516v25h150v710h-486v-710h154v-25h-516z" />
<glyph unicode="I" horiz-adv-x="720" d="M82 0v25h190v1384h-190v25h553v-25h-191v-1384h195v-25h-557z" />
<glyph unicode="J" horiz-adv-x="882" d="M10 12v461h25l129 -461q14 -12 108 -12q177 0 177 166v1243h-191v25h553v-25h-190v-1051q0 -67 -6.5 -117.5t-26.5 -103t-54.5 -86t-94.5 -55t-142 -21.5q-56 0 -127.5 9.5t-115.5 18.5z" />
<glyph unicode="K" horiz-adv-x="1251" d="M82 0v25h190v1384h-190v25h553v-25h-191v-711l551 711h-159v25h389v-25h-191l-389 -498l471 -886h135v-25h-325l-402 758l-80 -105v-628h195v-25h-557z" />
<glyph unicode="L" horiz-adv-x="944" d="M82 0v25h190v1384h-188v25h551v-25h-191v-1384h344l125 456h21v-481h-852z" />
<glyph unicode="M" horiz-adv-x="1380" d="M82 0v25h158v1353l-13 31h-129v25h316l307 -754l268 754h318v-25h-146v-1384h146v-25h-500v25h182v1310l-319 -884h-39l-363 868v-1294h203v-25h-389z" />
<glyph unicode="N" horiz-adv-x="1193" d="M72 0v25h157v1355l-12 29h-129v25h315l515 -1115h4v1090h-205v25h405v-25h-170v-1409h-82l-612 1319v-1294h203v-25h-389z" />
<glyph unicode="O" horiz-adv-x="1146" d="M127 719q0 135 9.5 240.5t26.5 183t46 133t62.5 90.5t82 55t98.5 27.5t117 7.5q95 0 160.5 -15.5t124 -61t93 -126.5t54 -213.5t19.5 -320.5q0 -177 -19.5 -306t-54.5 -213t-92 -133.5t-125 -69.5t-160 -20q-67 0 -117 8t-98 28.5t-82 56t-63 91t-46 133.5t-26.5 184 t-9.5 241zM315 719q0 -213 7 -377q4 -91 20 -156t37.5 -100.5t55 -55.5t63 -25t71.5 -5q36 0 62.5 3.5t57 15t51.5 35t40 60t30.5 94t14.5 134.5q6 141 6 375q0 236 -6 377q-4 91 -20.5 156t-38.5 100t-57 54.5t-65 24.5t-75 5q-35 0 -60 -3.5t-54.5 -14.5t-50 -34 t-39.5 -59.5t-29.5 -94t-13.5 -134.5q-7 -164 -7 -375z" />
<glyph unicode="P" horiz-adv-x="1013" d="M102 0v25h177v1384h-177v25h533q160 0 249 -88t89 -277q0 -182 -90 -275.5t-248 -93.5h-182v-675h186v-25h-537zM453 721h141q37 0 69.5 7t63 23.5t49.5 49t21 78.5q4 114 4 172q0 63 -4 145q-7 114 -59 163.5t-144 49.5h-141v-688z" />
<glyph unicode="Q" horiz-adv-x="1181" d="M127 719q0 135 9.5 240.5t26.5 183t46 133t62.5 90.5t82 55t98.5 27.5t117 7.5q95 0 160.5 -15.5t124 -61t93 -126.5t54 -213.5t19.5 -320.5q0 -177 -19.5 -306t-54.5 -213t-92 -133.5t-125 -69.5t-160 -20q-67 0 -117 8t-98 28.5t-82 56t-63 91t-46 133.5t-26.5 184 t-9.5 241zM315 719q0 -213 7 -377q4 -91 20 -156t37.5 -100.5t55 -55.5t63 -25t71.5 -5q36 0 62.5 3.5t57 15t51.5 35t40 60t30.5 94t14.5 134.5q6 141 6 375q0 236 -6 377q-4 91 -20.5 156t-38.5 100t-57 54.5t-65 24.5t-75 5q-35 0 -60 -3.5t-54.5 -14.5t-50 -34 t-39.5 -59.5t-29.5 -94t-13.5 -134.5q-7 -164 -7 -375z" />
<glyph unicode="R" horiz-adv-x="1181" d="M82 0v25h176v1384h-176v25h532q159 0 248.5 -84.5t89.5 -259.5q0 -300 -284 -332v-4q71 -14 145 -43q79 -35 108 -89t35 -155l19 -297q5 -88 20.5 -126t59.5 -38q22 0 38.5 10t27 29.5t15.5 36t11 41.5l27 -6q-21 -85 -51 -115.5t-99 -30.5q-114 0 -166 56t-57 163 l-17 357q-5 105 -39.5 149.5t-126.5 44.5h-186v-716h186v-25h-536zM432 762h141q37 0 69.5 7t63 23.5t49.5 49t21 78.5q4 114 4 151q0 39 -4 125q-6 114 -58.5 163.5t-144.5 49.5h-141v-647z" />
<glyph unicode="S" horiz-adv-x="952" d="M113 1133q0 91 27.5 155t80 100t119 52t154.5 16q56 0 133.5 -13t127.5 -27l50 -13v-440h-25l-125 440q-49 31 -143 31q-127 0 -185.5 -49t-58.5 -164q0 -63 31.5 -128.5t82 -123.5t111.5 -117.5t122 -120.5t111.5 -122t82 -133t31.5 -144q0 -73 -19.5 -134.5t-61.5 -113 t-117 -80.5t-177 -29q-56 0 -140.5 12.5t-140.5 24.5l-57 13v460h25l124 -460q70 -25 164 -25q244 0 244 270q0 62 -31.5 126.5t-82 122t-111.5 116t-121.5 118.5t-111 119t-82 127t-31.5 134z" />
<glyph unicode="T" horiz-adv-x="1067" d="M72 956v478h923v-478h-24l-109 453h-239v-1384h190v-25h-559v25h190v1384h-239l-109 -453h-24z" />
<glyph unicode="U" horiz-adv-x="1333" d="M72 1409v25h491v-25h-149v-1087q0 -93 17 -157t51 -99.5t77.5 -50.5t104.5 -15t105.5 15t79.5 50.5t53 99.5t18 157v1087h-140v25h482v-25h-172v-958q0 -143 -24 -236t-78.5 -146t-130.5 -73.5t-193 -20.5t-192.5 20.5t-129 74t-77 146t-23.5 235.5v958h-170z" />
<glyph unicode="V" horiz-adv-x="1083" d="M10 1409v25h426v-25h-131l320 -1315l299 1315h-191v25h340v-25h-117l-313 -1384h-164l-346 1384h-123z" />
<glyph unicode="W" horiz-adv-x="1363" d="M20 1409v25h426v-25h-131l217 -1284l125 895l-28 160h168l186 -1065l215 1294h-180v25h340v-25h-127l-232 -1384h-163l-160 888l-125 -888h-164l-240 1384h-127z" />
<glyph unicode="X" horiz-adv-x="1333" d="M123 0v25h145l314 665l-334 719h-119v25h426v-25h-111l265 -567l266 567h-197v25h426v-25h-203l-276 -600l365 -784h114v-25h-426v25h111l-295 637l-295 -637h209v-25h-385z" />
<glyph unicode="Y" horiz-adv-x="1085" d="M10 1409v25h471v-25h-153l297 -727l258 727h-197v25h389v-25h-162l-280 -791h2v-593h194v-25h-557v25h191v593l-330 791h-123z" />
<glyph unicode="Z" horiz-adv-x="1062" d="M154 0v25l559 1384h-408l-117 -416h-24v441h745v-25l-557 -1384h383l127 456h25v-481h-733z" />
<glyph unicode="[" horiz-adv-x="622" d="M154 -205v1843h362v-24h-190v-1794h194v-25h-366z" />
<glyph unicode="\" horiz-adv-x="647" d="M109 1536h32l375 -1638h-33z" />
<glyph unicode="]" horiz-adv-x="622" d="M102 -180h195v1794h-191v24h363v-1843h-367v25z" />
<glyph unicode="_" horiz-adv-x="956" d="M133 0h674v-25h-674v25z" />
<glyph unicode="`" horiz-adv-x="288" d="M0 1958h145l144 -422h-25z" />
<glyph unicode="|" horiz-adv-x="360" d="M164 -268v1802h35v-1802h-35z" />
<glyph unicode="&#xa5;" horiz-adv-x="1085" d="M10 1409v25h471v-25h-153l297 -727l258 727h-197v25h389v-25h-162l-278 -778v-606h194v-25h-557v25h191v593l-330 791h-123zM184 475v25h715v-25h-715zM184 739v25h328l4 -25h-332zM666 739l6 25h227v-25h-233z" />
<glyph unicode="&#xa7;" horiz-adv-x="952" d="M215 649q0 133 87.5 208t217.5 75q19 0 42 -18t42 -21l31 -14q-43 16 -98 16q-97 0 -141 -37t-44 -123q0 -64 44.5 -131.5t107.5 -128t126 -122.5t107.5 -136.5t44.5 -148.5q0 -54 -15 -102.5t-46.5 -90.5t-88 -67t-132.5 -25q-41 0 -104 9.5t-106 18.5l-42 9v364h18 l92 -346q51 -18 123 -18q81 0 122.5 45t41.5 158q0 46 -23.5 93.5t-61.5 88.5t-84 82.5t-92 84t-84 85t-61.5 92.5t-23.5 100zM252 1176q0 132 88 206t219 74q42 0 100.5 -10t96.5 -20l37 -9v-350h-19l-92 332q-37 20 -109 20q-96 0 -140 -36.5t-44 -122.5q0 -47 23.5 -96 t61.5 -92t84 -87.5t92 -90.5t84 -92t61.5 -100t23.5 -108q0 -55 -14.5 -104t-46 -91t-88 -67t-133.5 -25q-20 0 -29.5 7.5t-32.5 11.5l-39 49q1 0 28 -15.5t54 -15.5q82 0 123 44.5t41 158.5q0 54 -32 110t-79.5 101.5t-103.5 97.5t-103.5 99t-79.5 105.5t-32 115.5z" />
<glyph unicode="&#xa8;" horiz-adv-x="983" d="M213 1663q0 38 27 65t65 27t65 -27t27 -65t-27 -65t-65 -27t-65 27t-27 65zM582 1663q0 38 27 65t65 27t65 -27t27 -65t-27 -65t-65 -27t-65 27t-27 65z" />
<glyph unicode="&#xad;" d="M133 614v25h674v-25h-674z" />
<glyph unicode="&#xb0;" horiz-adv-x="561" d="M117 1161q0 75 54.5 128.5t129.5 53.5t129.5 -53.5t54.5 -128.5t-54.5 -129.5t-129.5 -54.5t-129.5 54.5t-54.5 129.5zM150 1161q0 -63 44 -108t107 -45q64 0 108 45t44 108t-44 107.5t-108 44.5q-63 0 -107 -44.5t-44 -107.5z" />
<glyph unicode="&#xb1;" d="M133 207v24h674v-24h-674zM133 614v25h674v-25h-674zM457 330v592h24v-592h-24z" />
<glyph unicode="&#xb4;" horiz-adv-x="288" d="M0 1536l143 422h146l-264 -422h-25z" />
<glyph unicode="&#xb7;" horiz-adv-x="294" d="M55 612q0 38 27 65.5t65 27.5t65.5 -27.5t27.5 -65.5t-27.5 -65t-65.5 -27t-65 27t-27 65z" />
<glyph unicode="&#xc0;" horiz-adv-x="1042" d="M10 0v25h123l287 1273l-37 136h174l358 -1409h117v-25h-426v25h131l-127 526h-327l-117 -526h192v-25h-348zM287 575h315l-162 662h-4zM410 1540l143 422h145l-264 -422h-24z" />
<glyph unicode="&#xc1;" horiz-adv-x="1042" d="M10 0v25h123l287 1273l-37 136h174l358 -1409h117v-25h-426v25h131l-127 526h-327l-117 -526h192v-25h-348zM287 575h315l-162 662h-4zM438 1536l144 422h145l-264 -422h-25z" />
<glyph unicode="&#xc2;" horiz-adv-x="1042" d="M10 0v25h123l287 1273l-37 136h174l358 -1409h117v-25h-426v25h131l-127 526h-327l-117 -526h192v-25h-348zM211 1522l225 360h88l226 -360h-25l-246 235l-243 -235h-25zM287 575h315l-162 662h-4z" />
<glyph unicode="&#xc3;" horiz-adv-x="1042" d="M10 0v25h123l287 1273l-37 136h174l358 -1409h117v-25h-426v25h131l-127 526h-327l-117 -526h192v-25h-348zM127 1657q0 35 17 57.5t59 46.5q80 47 141 47q42 0 78 -20l90 -55q9 -6 34 -22t41.5 -26t38.5 -22.5t39.5 -18.5t30.5 -6q31 0 56.5 20.5t25.5 51.5q0 23 -20 88 l24 8q25 -80 25 -104q0 -30 -17.5 -52t-58.5 -46q-82 -48 -141 -48q-40 0 -78 21l-90 55q-9 6 -34 22t-41 26t-38 22t-40 18t-31 6q-36 0 -59 -17t-23 -54q0 -23 20 -88l-24 -8q-25 80 -25 98zM287 575h315l-162 662h-4z" />
<glyph unicode="&#xc4;" horiz-adv-x="1042" d="M10 0v25h123l287 1273l-37 136h174l358 -1409h117v-25h-426v25h131l-127 526h-327l-117 -526h192v-25h-348zM188 1663q0 38 27.5 65t65.5 27t65 -27t27 -65t-27 -65t-65 -27t-65.5 27t-27.5 65zM287 575h315l-162 662h-4zM557 1663q0 38 27 65t65 27t65 -27t27 -65 t-27 -65t-65 -27t-65 27t-27 65z" />
<glyph unicode="&#xc5;" horiz-adv-x="1042" d="M10 0v25h123l287 1273l-31 111q-40 25 -64 67t-24 91q0 75 54.5 128.5t129.5 53.5t130 -53.5t55 -128.5q0 -53 -29 -97.5t-76 -68.5l350 -1376h117v-25h-426v25h131l-127 526h-327l-117 -526h192v-25h-348zM287 575h315l-162 662h-4zM334 1567q0 -63 44 -108.5t107 -45.5 t107.5 45t44.5 109q0 63 -44 107t-108 44q-63 0 -107 -44t-44 -107z" />
<glyph unicode="&#xc6;" horiz-adv-x="1406" d="M53 0v25h103l481 1384h-164v25h791v-441h-25l-121 416h-264v-649h160l47 241h20v-509h-20l-47 243h-160v-710h289l117 415h24v-440h-686v25h82v526h-313l-179 -526h152v-25h-287zM375 575h305v834h-16z" />
<glyph unicode="&#xc7;" horiz-adv-x="966" d="M113 754q0 175 21.5 301.5t58 204t95.5 123t123 61.5t152 16q56 0 128.5 -9t117.5 -17l45 -9v-440h-25l-124 440q-29 11 -123 11q-50 0 -93 -15.5t-84 -52t-67 -106.5t-31 -168q-8 -133 -8 -361q0 -226 8 -354q6 -114 29 -192.5t60.5 -117.5t76 -54t86.5 -15q42 0 78.5 3 t52.5 6l15 3l124 439h25v-443q-197 -37 -322 -37q-80 0 -143 24.5t-115.5 81t-87.5 146t-54 223t-19 308.5zM436 -362l15 16q41 -33 108 -33q28 0 51.5 16t26.5 44q2 14 2 49q0 41 -2 51q-7 72 -90 72q-20 0 -35 -4.5t-26.5 -16t-13 -14t-9.5 -13.5h-21l62 175h24l-45 -123 q38 18 82 18q68 0 119 -36t51 -101q0 -139 -166 -139q-88 0 -133 39z" />
<glyph unicode="&#xc8;" horiz-adv-x="1101" d="M82 0v25h190v1384h-190v25h815v-441h-25l-120 416h-306v-649h185l63 241h21v-509h-21l-63 243h-185v-710h351l116 415h25v-440h-856zM422 1534l143 422h146l-265 -422h-24z" />
<glyph unicode="&#xc9;" horiz-adv-x="1101" d="M82 0v25h190v1384h-190v25h815v-441h-25l-120 416h-306v-649h185l63 241h21v-509h-21l-63 243h-185v-710h351l116 415h25v-440h-856zM406 1536l143 422h145l-264 -422h-24z" />
<glyph unicode="&#xca;" horiz-adv-x="1101" d="M82 0v25h190v1384h-190v25h815v-441h-25l-120 416h-306v-649h185l63 241h21v-509h-21l-63 243h-185v-710h351l116 415h25v-440h-856zM281 1579l225 360h88l225 -360h-24l-246 236l-244 -236h-24z" />
<glyph unicode="&#xcb;" horiz-adv-x="1101" d="M82 0v25h190v1384h-190v25h815v-441h-25l-120 416h-306v-649h185l63 241h21v-509h-21l-63 243h-185v-710h351l116 415h25v-440h-856zM274 1663q0 38 27.5 65t65.5 27t65 -27t27 -65t-27 -65t-65 -27t-65.5 27t-27.5 65zM643 1663q0 38 27 65t65 27t65 -27t27 -65t-27 -65 t-65 -27t-65 27t-27 65z" />
<glyph unicode="&#xcc;" horiz-adv-x="720" d="M82 0v25h190v1384h-190v25h553v-25h-191v-1384h195v-25h-557zM301 1536l143 422h146l-264 -422h-25z" />
<glyph unicode="&#xcd;" horiz-adv-x="720" d="M82 0v25h190v1384h-190v25h553v-25h-191v-1384h195v-25h-557zM340 1536l143 422h146l-264 -422h-25z" />
<glyph unicode="&#xce;" horiz-adv-x="720" d="M82 0v25h190v1384h-190v25h553v-25h-191v-1384h195v-25h-557zM92 1628l225 361h89l225 -361h-25l-246 236l-243 -236h-25z" />
<glyph unicode="&#xcf;" horiz-adv-x="720" d="M82 0h557v25h-195v1384h191v25h-553v-25h190v-1384h-190v-25zM84 1663q0 38 27 65t65 27t65 -27t27 -65t-27 -65t-65 -27t-65 27t-27 65zM453 1663q0 38 27 65t65 27t65 -27t27 -65t-27 -65t-65 -27t-65 27t-27 65z" />
<glyph unicode="&#xd0;" horiz-adv-x="1232" d="M123 0v25h166v1384h-166v25h92q45 0 205.5 3t179.5 3q96 0 165 -12t127.5 -43.5t95.5 -83t63.5 -133t37.5 -191.5t11 -260t-11 -260t-37.5 -191.5t-63.5 -133t-95.5 -83t-127.5 -43.5t-165 -12q-19 0 -179.5 3t-205.5 3h-92zM123 735v25h590v-25h-590zM463 25 q35 -5 127 -5q108 0 170.5 27.5t97.5 101t43 207.5q8 139 8 361q0 221 -8 360q-8 134 -43 207.5t-97.5 101t-170.5 27.5l-127 -4v-1384z" />
<glyph unicode="&#xd1;" horiz-adv-x="1193" d="M72 0v25h157v1355l-12 29h-129v25h315l515 -1115h4v1090h-205v25h405v-25h-170v-1409h-82l-612 1319v-1294h203v-25h-389zM256 1692q0 35 17 57.5t59 46.5q80 47 141 47q42 0 78 -20l90 -56q8 -5 34 -22t41.5 -26t38 -21.5t40 -18.5t30.5 -6q31 0 56.5 20.5t25.5 51.5 q0 23 -20 88l24 8q25 -80 25 -104q0 -30 -17.5 -52.5t-58.5 -46.5q-80 -47 -141 -47q-41 0 -78 21l-90 55q-9 6 -34 22t-41 26t-38 22t-40 18t-31 6q-36 0 -59 -17t-23 -54q0 -23 20 -88l-24 -9q-25 80 -25 99z" />
<glyph unicode="&#xd2;" horiz-adv-x="1146" d="M127 719q0 135 9.5 240.5t26.5 183t46 133t62.5 90.5t82 55t98.5 27.5t117 7.5q95 0 160.5 -15.5t124 -61t93 -126.5t54 -213.5t19.5 -320.5q0 -177 -19.5 -306t-54.5 -213t-92 -133.5t-125 -69.5t-160 -20q-67 0 -117 8t-98 28.5t-82 56t-63 91t-46 133.5t-26.5 184 t-9.5 241zM315 719q0 -213 7 -377q4 -91 20 -156t37.5 -100.5t55 -55.5t63 -25t71.5 -5q36 0 62.5 3.5t57 15t51.5 35t40 60t30.5 94t14.5 134.5q6 141 6 375q0 236 -6 377q-4 91 -20.5 156t-38.5 100t-57 54.5t-65 24.5t-75 5q-35 0 -60 -3.5t-54.5 -14.5t-50 -34 t-39.5 -59.5t-29.5 -94t-13.5 -134.5q-7 -164 -7 -375zM481 1536l144 422h145l-264 -422h-25z" />
<glyph unicode="&#xd3;" horiz-adv-x="1146" d="M127 719q0 135 9.5 240.5t26.5 183t46 133t62.5 90.5t82 55t98.5 27.5t117 7.5q95 0 160.5 -15.5t124 -61t93 -126.5t54 -213.5t19.5 -320.5q0 -177 -19.5 -306t-54.5 -213t-92 -133.5t-125 -69.5t-160 -20q-67 0 -117 8t-98 28.5t-82 56t-63 91t-46 133.5t-26.5 184 t-9.5 241zM315 719q0 -213 7 -377q4 -91 20 -156t37.5 -100.5t55 -55.5t63 -25t71.5 -5q36 0 62.5 3.5t57 15t51.5 35t40 60t30.5 94t14.5 134.5q6 141 6 375q0 236 -6 377q-4 91 -20.5 156t-38.5 100t-57 54.5t-65 24.5t-75 5q-35 0 -60 -3.5t-54.5 -14.5t-50 -34 t-39.5 -59.5t-29.5 -94t-13.5 -134.5q-7 -164 -7 -375zM428 1536l143 422h146l-264 -422h-25z" />
<glyph unicode="&#xd4;" horiz-adv-x="1146" d="M127 719q0 135 9.5 240.5t26.5 183t46 133t62.5 90.5t82 55t98.5 27.5t117 7.5q95 0 160.5 -15.5t124 -61t93 -126.5t54 -213.5t19.5 -320.5q0 -177 -19.5 -306t-54.5 -213t-92 -133.5t-125 -69.5t-160 -20q-67 0 -117 8t-98 28.5t-82 56t-63 91t-46 133.5t-26.5 184 t-9.5 241zM303 1579l225 360h88l226 -360h-25l-246 236l-243 -236h-25zM315 719q0 -213 7 -377q4 -91 20 -156t37.5 -100.5t55 -55.5t63 -25t71.5 -5q36 0 62.5 3.5t57 15t51.5 35t40 60t30.5 94t14.5 134.5q6 141 6 375q0 236 -6 377q-4 91 -20.5 156t-38.5 100t-57 54.5 t-65 24.5t-75 5q-35 0 -60 -3.5t-54.5 -14.5t-50 -34t-39.5 -59.5t-29.5 -94t-13.5 -134.5q-7 -164 -7 -375z" />
<glyph unicode="&#xd5;" horiz-adv-x="1146" d="M127 719q0 135 9.5 240.5t26.5 183t46 133t62.5 90.5t82 55t98.5 27.5t117 7.5q95 0 160.5 -15.5t124 -61t93 -126.5t54 -213.5t19.5 -320.5q0 -177 -19.5 -306t-54.5 -213t-92 -133.5t-125 -69.5t-160 -20q-67 0 -117 8t-98 28.5t-82 56t-63 91t-46 133.5t-26.5 184 t-9.5 241zM217 1665q0 35 17 57.5t59 46.5q82 48 141 48q40 0 78 -21l90 -55q8 -5 34 -22t41.5 -26t38 -21.5t40 -18.5t30.5 -6q31 0 56.5 20t25.5 51q0 23 -20 88l24 9q25 -80 25 -105q0 -30 -17.5 -52t-58.5 -46q-80 -47 -141 -47q-42 0 -78 20l-90 55q-7 4 -42.5 27.5 t-53.5 34t-45 22t-43 11.5q-36 0 -59 -17.5t-23 -54.5q0 -23 20 -88l-24 -8q-25 80 -25 98zM315 719q0 -213 7 -377q4 -91 20 -156t37.5 -100.5t55 -55.5t63 -25t71.5 -5q36 0 62.5 3.5t57 15t51.5 35t40 60t30.5 94t14.5 134.5q6 141 6 375q0 236 -6 377q-4 91 -20.5 156 t-38.5 100t-57 54.5t-65 24.5t-75 5q-35 0 -60 -3.5t-54.5 -14.5t-50 -34t-39.5 -59.5t-29.5 -94t-13.5 -134.5q-7 -164 -7 -375z" />
<glyph unicode="&#xd6;" horiz-adv-x="1146" d="M127 719q0 135 9.5 240.5t26.5 183t46 133t62.5 90.5t82 55t98.5 27.5t117 7.5q95 0 160.5 -15.5t124 -61t93 -126.5t54 -213.5t19.5 -320.5q0 -177 -19.5 -306t-54.5 -213t-92 -133.5t-125 -69.5t-160 -20q-67 0 -117 8t-98 28.5t-82 56t-63 91t-46 133.5t-26.5 184 t-9.5 241zM297 1663q0 38 27 65t65 27t65 -27t27 -65t-27 -65t-65 -27t-65 27t-27 65zM315 719q0 -213 7 -377q4 -91 20 -156t37.5 -100.5t55 -55.5t63 -25t71.5 -5q36 0 62.5 3.5t57 15t51.5 35t40 60t30.5 94t14.5 134.5q6 141 6 375q0 236 -6 377q-4 91 -20.5 156 t-38.5 100t-57 54.5t-65 24.5t-75 5q-35 0 -60 -3.5t-54.5 -14.5t-50 -34t-39.5 -59.5t-29.5 -94t-13.5 -134.5q-7 -164 -7 -375zM666 1663q0 38 27 65t65 27t65 -27t27 -65t-27 -65t-65 -27t-65 27t-27 65z" />
<glyph unicode="&#xd7;" d="M223 397l475 475l19 -16l-477 -477zM223 854l17 18l477 -477l-19 -16z" />
<glyph unicode="&#xd8;" horiz-adv-x="1146" d="M113 719q0 157 13 275t40.5 199.5t64 134t90.5 81.5t112 40t136 11q123 0 208 -30.5t141 -110.5l69 115h33l-86 -142q100 -168 100 -573q0 -176 -20.5 -306t-58 -213.5t-96.5 -134t-128.5 -70.5t-161.5 -20q-122 0 -205.5 31t-138.5 111l-69 -117h-33l86 143 q-96 169 -96 576zM301 719q0 -236 6 -377q0 -23 2 -33l520 865q-44 264 -260 264q-49 0 -90.5 -16t-79.5 -52.5t-62 -107t-30 -168.5q-6 -141 -6 -375zM315 264q42 -266 254 -266q51 0 94 16t82.5 52.5t64 106.5t30.5 169q6 141 6 375q0 236 -6 377l-4 36z" />
<glyph unicode="&#xd9;" horiz-adv-x="1333" d="M72 1409v25h491v-25h-149v-1087q0 -93 17 -157t51 -99.5t77.5 -50.5t104.5 -15t105.5 15t79.5 50.5t53 99.5t18 157v1087h-140v25h482v-25h-172v-958q0 -143 -24 -236t-78.5 -146t-130.5 -73.5t-193 -20.5t-192.5 20.5t-129 74t-77 146t-23.5 235.5v958h-170zM524 1540 l144 422h145l-264 -422h-25z" />
<glyph unicode="&#xda;" horiz-adv-x="1333" d="M72 1409v25h491v-25h-149v-1087q0 -93 17 -157t51 -99.5t77.5 -50.5t104.5 -15t105.5 15t79.5 50.5t53 99.5t18 157v1087h-140v25h482v-25h-172v-958q0 -143 -24 -236t-78.5 -146t-130.5 -73.5t-193 -20.5t-192.5 20.5t-129 74t-77 146t-23.5 235.5v958h-170zM625 1536 l143 422h145l-264 -422h-24z" />
<glyph unicode="&#xdb;" horiz-adv-x="1333" d="M72 1409v25h491v-25h-149v-1087q0 -93 17 -157t51 -99.5t77.5 -50.5t104.5 -15t105.5 15t79.5 50.5t53 99.5t18 157v1087h-140v25h482v-25h-172v-958q0 -143 -24 -236t-78.5 -146t-130.5 -73.5t-193 -20.5t-192.5 20.5t-129 74t-77 146t-23.5 235.5v958h-170zM397 1608 l226 360h88l225 -360h-25l-245 235l-244 -235h-25z" />
<glyph unicode="&#xdc;" horiz-adv-x="1333" d="M72 1409v25h491v-25h-149v-1087q0 -93 17 -157t51 -99.5t77.5 -50.5t104.5 -15t105.5 15t79.5 50.5t53 99.5t18 157v1087h-140v25h482v-25h-172v-958q0 -143 -24 -236t-78.5 -146t-130.5 -73.5t-193 -20.5t-192.5 20.5t-129 74t-77 146t-23.5 235.5v958h-170zM389 1663 q0 38 27 65t65 27t65 -27t27 -65t-27 -65t-65 -27t-65 27t-27 65zM758 1663q0 38 27 65t65 27t65 -27t27 -65t-27 -65t-65 -27t-65 27t-27 65z" />
<glyph unicode="&#xdd;" horiz-adv-x="1085" d="M10 1409v25h471v-25h-153l297 -727l258 727h-197v25h389v-25h-162l-280 -791h2v-593h194v-25h-557v25h191v593l-330 791h-123zM422 1589l143 422h146l-265 -422h-24z" />
<glyph unicode="&#xf7;" horiz-adv-x="296" d="M-188 614h673v25h-673v-25zM55 358q0 38 27 65.5t65 27.5t65.5 -27.5t27.5 -65.5t-27.5 -65t-65.5 -27t-65 27t-27 65zM55 883q0 38 27 65t65 27t65.5 -27t27.5 -65t-27.5 -65t-65.5 -27t-65 27t-27 65z" />
<glyph unicode="&#x152;" horiz-adv-x="1632" d="M123 717q0 150 11 260t37.5 191.5t63.5 133t95.5 83t127.5 43.5t165 12q19 0 179.5 -3t205.5 -3h92v-25h-166v-1384h166v-25h-92q-45 0 -205.5 -3t-179.5 -3q-96 0 -165 12t-127.5 43.5t-95.5 83t-63.5 133t-37.5 191.5t-11 260zM313 717q0 -205 9 -361q8 -134 43 -207.5 t97.5 -101t170.5 -27.5q41 0 72.5 1t42.5 3l12 1v1384q-35 4 -127 4q-108 0 -170.5 -27.5t-97.5 -101t-43 -207.5q-9 -156 -9 -360zM672 0l88 6v19v1384v14l-88 11h712v-441h-24l-121 416h-305v-649h184l64 241h20v-509h-20l-64 243h-184v-710h350l117 415h24v-440h-753z " />
<glyph unicode="&#x178;" horiz-adv-x="1085" d="M10 1409v25h471v-25h-153l297 -727l258 727h-197v25h389v-25h-162l-280 -791h2v-593h194v-25h-557v25h191v593l-330 791h-123zM266 1663q0 38 27 65t65 27t65.5 -27t27.5 -65t-27.5 -65t-65.5 -27t-65 27t-27 65zM635 1663q0 38 27 65t65 27t65 -27t27 -65t-27 -65 t-65 -27t-65 27t-27 65z" />
<glyph unicode="&#x2c6;" horiz-adv-x="833" d="M139 1536l226 360h88l225 -360h-25l-245 236l-244 -236h-25z" />
<glyph unicode="&#x2dc;" horiz-adv-x="1705" d="M512 1634q0 35 17 58t59 47q80 47 141 47q41 0 78 -21l90 -55q8 -5 34 -22t41.5 -26t38 -21.5t40 -18.5t30.5 -6q31 0 56.5 20.5t25.5 51.5q0 23 -20 88l24 8q25 -80 25 -105q0 -30 -17.5 -52t-58.5 -46q-80 -47 -141 -47q-42 0 -78 20l-90 56q-9 6 -34 22t-41 26t-38 22 t-40 18t-31 6q-36 0 -59 -17.5t-23 -54.5q0 -23 20 -88l-24 -8q-25 80 -25 98z" />
<glyph unicode="&#x2000;" horiz-adv-x="1005" />
<glyph unicode="&#x2001;" horiz-adv-x="2011" />
<glyph unicode="&#x2002;" horiz-adv-x="1005" />
<glyph unicode="&#x2003;" horiz-adv-x="2011" />
<glyph unicode="&#x2004;" horiz-adv-x="670" />
<glyph unicode="&#x2005;" horiz-adv-x="502" />
<glyph unicode="&#x2006;" horiz-adv-x="335" />
<glyph unicode="&#x2007;" horiz-adv-x="335" />
<glyph unicode="&#x2008;" horiz-adv-x="251" />
<glyph unicode="&#x2009;" horiz-adv-x="402" />
<glyph unicode="&#x200a;" horiz-adv-x="111" />
<glyph unicode="&#x2010;" d="M133 614v25h674v-25h-674z" />
<glyph unicode="&#x2011;" d="M133 614v25h674v-25h-674z" />
<glyph unicode="&#x2012;" d="M133 614v25h674v-25h-674z" />
<glyph unicode="&#x2013;" horiz-adv-x="1347" d="M133 614v25h1024v-25h-1024z" />
<glyph unicode="&#x2014;" horiz-adv-x="2371" d="M133 614v25h2048v-25h-2048z" />
<glyph unicode="&#x2018;" horiz-adv-x="360" d="M154 985v449h24q17 -72 47.5 -184.5t52.5 -188.5l21 -76h-145z" />
<glyph unicode="&#x2019;" horiz-adv-x="360" d="M154 985v449h145q-82 -287 -121 -449h-24z" />
<glyph unicode="&#x201a;" horiz-adv-x="325" d="M61 -256l41 469h166l-162 -469h-45z" />
<glyph unicode="&#x201c;" horiz-adv-x="446" d="M72 985v449h24q17 -72 47.5 -184t52.5 -188l21 -77h-145zM258 985v449h25q17 -72 47 -184.5t52 -188.5l21 -76h-145z" />
<glyph unicode="&#x201d;" horiz-adv-x="446" d="M72 985v449h145q-82 -287 -121 -449h-24zM258 985v449h145q-81 -287 -120 -449h-25z" />
<glyph unicode="&#x201e;" horiz-adv-x="552" d="M61 -256l41 469h166l-162 -469h-45zM303 -256l41 469h166l-162 -469h-45z" />
<glyph unicode="&#x2022;" horiz-adv-x="542" d="M152 725q0 46 33 79.5t79 33.5t79.5 -33.5t33.5 -79.5t-33.5 -79.5t-79.5 -33.5t-79 33.5t-33 79.5z" />
<glyph unicode="&#x2026;" horiz-adv-x="884" d="M55 78q0 38 27 65t65 27t65.5 -27t27.5 -65t-27.5 -65t-65.5 -27t-65 27t-27 65zM350 78q0 38 27 65t65 27t65.5 -27t27.5 -65t-27.5 -65t-65.5 -27t-65 27t-27 65zM645 78q0 38 27 65t65 27t65 -27t27 -65t-27 -65t-65 -27t-65 27t-27 65z" />
<glyph unicode="&#x202f;" horiz-adv-x="402" />
<glyph unicode="&#x205f;" horiz-adv-x="502" />
<glyph unicode="&#x20ac;" horiz-adv-x="1173" d="M25 614v25h673v-25h-673zM25 840v24h673v-24h-673zM199 754q0 175 21.5 301.5t58 204t95.5 123t123 61.5t152 16q56 0 128.5 -9t117.5 -17l45 -9v-440h-25l-124 440q-29 11 -123 11q-50 0 -93 -15.5t-84 -52t-67 -106.5t-31 -168q-8 -133 -8 -361q0 -226 8 -354 q6 -114 29 -192.5t60.5 -117.5t76 -54t86.5 -15q42 0 78.5 3t52.5 6l15 3l124 439h25v-443q-197 -37 -322 -37q-80 0 -143 24.5t-115.5 81t-87.5 146t-54 223t-19 308.5z" />
<glyph unicode="&#xe000;" horiz-adv-x="1024" d="M0 0z" />
</font>
</defs>
</svg>
